<?xml version="1.0" standalone="no"?>
<!DOCTYPE svg PUBLIC "-//W3C//DTD SVG 20010904//EN"
 "http://www.w3.org/TR/2001/REC-SVG-20010904/DTD/svg10.dtd">
<svg version="1.0" xmlns="http://www.w3.org/2000/svg"
 width="1092.000000pt" height="1092.000000pt" viewBox="0 0 1092.000000 1092.000000"
 preserveAspectRatio="xMidYMid meet">
<metadata>
Created by potrace 1.11, written by Peter Selinger 2001-2013
</metadata>
<g transform="translate(0.000000,1092.000000) scale(0.100000,-0.100000)"
fill="#000000" stroke="none">
<path d="M5170 10850 c-1192 -79 -2281 -519 -3180 -1286 -148 -126 -448 -426
-574 -574 -679 -797 -1113 -1770 -1245 -2792 -59 -457 -61 -909 -5 -1363 165
-1343 861 -2608 1909 -3468 1199 -984 2749 -1401 4275 -1151 965 158 1876 583
2625 1225 152 129 441 419 569 569 729 854 1162 1879 1272 3010 24 242 24 721
0 960 -67 685 -235 1281 -526 1875 -202 412 -416 741 -719 1105 -127 153 -485
511 -640 640 -860 713 -1856 1128 -2966 1235 -197 19 -614 27 -795 15z m-974
-1764 c734 -78 1201 -321 1457 -759 80 -138 135 -297 173 -500 22 -112 30
-455 15 -588 -45 -391 -185 -695 -436 -944 -252 -252 -585 -417 -1014 -504
-276 -57 -371 -64 -918 -68 l-503 -5 0 -1094 0 -1094 -330 0 -330 0 0 2783 c0
1531 3 2787 8 2791 4 4 394 6 867 3 694 -4 889 -8 1011 -21z m3918 -984 c126
-227 225 -416 221 -420 -4 -4 -81 -6 -171 -4 l-164 3 -2 -2318 -3 -2318 -127
-3 -128 -3 0 2320 0 2319 -175 -1 c-96 -1 -175 0 -175 2 0 2 106 197 237 433
186 339 239 426 248 416 7 -7 114 -199 239 -426z m-952 -1509 l237 -428 -175
-3 -174 -2 0 -1560 c0 -858 -3 -1560 -7 -1561 -11 -1 -182 -1 -220 0 l-33 1 0
1560 0 1560 -173 2 -173 3 236 427 c129 235 238 428 241 428 3 0 112 -192 241
-427z m-938 -1629 c130 -234 236 -427 236 -430 0 -2 -79 -4 -175 -4 l-175 0 0
-750 0 -751 -127 3 -128 3 -3 748 -2 747 -170 0 c-94 0 -170 3 -170 7 0 12
465 852 472 853 3 0 113 -192 242 -426z"/>
<path d="M2970 7410 l0 -1132 448 5 c469 5 558 11 787 53 300 54 523 154 679
303 123 119 205 266 253 457 26 103 28 122 28 339 0 206 -2 239 -22 318 -48
187 -131 336 -247 445 -147 137 -305 214 -566 277 -209 49 -308 57 -852 62
l-508 5 0 -1132z"/>
</g>
</svg>
